Coordinates
version=1
nRows=16
nColumns=33
inDegrees=yes

Units are S.I. units (second, meters, Newtons, ...)
Angles are in degrees.

endheader
time	ground_thorax_rot_x	ground_thorax_rot_y	ground_thorax_rot_z	ground_thorax_tx	ground_thorax_ty	ground_thorax_tz	clav_prot_r	clav_elev_r	scapula_abduction_r	scapula_elevation_r	scapula_upward_rot_r	scapula_winging_r	shoulder_elv_r	plane_of_elev_r	axial_rot_r	elbow_flexion_r	pro_sup_r	wrist_flex_r	wrist_dev_r	clav_prot_l	clav_elev_l	scapula_abduction_l	scapula_elevation_l	scapula_upward_rot_l	scapula_winging_l	shoulder_elv_l	plane_of_elev_l	axial_rot_l	elbow_flexion_l	pro_sup_l	wrist_flex_l	wrist_dev_l
     11.53000000	     39.34396303	     10.65242161	     13.26370922	   -235.66235471	    846.29971336	      7.60028097	     12.05156128	     38.60218489	     37.65253920	     45.00000000	    -34.44247189	   2069.20831532	   -831.64758002	    146.76288140	   -127.68517251	   1100.39788943	     98.81615053	     13.16812287	      1.32647187	      8.74945379	    -45.00000000	    -36.40555515	     45.00000000	    -45.00000000	  -2059.64076343	    267.95655424	    139.21978783	    148.13045621	   2530.97428881	     13.39561336	      3.47607745	    -19.57048493
     11.54000000	     39.41417919	     10.53001134	     13.24253763	   -234.33676085	    845.89136630	      7.55566901	     12.24846359	     38.71207865	     37.86633616	     45.00000000	    -34.29110783	   2069.03420438	   -831.81755706	    146.51396911	   -127.83531920	   1100.34245850	     98.65175371	     13.24690136	      1.28843707	      8.59607228	    -45.00000000	    -36.25150548	     45.00000000	    -45.00000000	  -2059.83687212	    267.97970530	    139.14223826	    148.49097576	   2530.96961180	     12.73991350	      3.63377346	    -19.61508261
     11.55000000	     39.37777715	     10.70091356	     13.33544713	   -232.91425909	    845.43939919	      7.51224988	     12.09837525	     38.71046130	     37.77254882	     45.00000000	    -33.98980850	   2069.14699776	   -831.78629343	    146.63737118	   -128.10898335	   1100.38313785	     98.48944867	     13.28857314	      1.22699009	      8.68155135	    -45.00000000	    -36.33933003	     45.00000000	    -45.00000000	  -2059.95249878	    267.97082615	    139.02482586	    148.89146629	   2530.91573056	     12.05904117	      3.79783030	    -19.63657322
     11.56000000	     39.36095645	     10.84133842	     13.45278202	   -231.40108129	    844.94176895	      7.47060495	     11.89278157	     38.68932076	     37.75370332	     45.00000000	    -33.63932080	   2069.34364940	   -831.68380490	    146.87700462	   -128.41226025	   1100.45517698	     98.32762008	     13.32374319	      1.15474130	      8.71964994	    -45.00000000	    -36.49422858	     45.00000000	    -45.00000000	  -2060.04219757	    267.94015511	    138.93536411	    149.20204186	   2530.89724858	     11.39051075	      3.99168755	    -19.66806795
     11.57000000	     39.46171341	     10.63660768	     13.37771675	   -229.79851101	    844.39316765	      7.43153387	     12.43497899	     38.97672059	     38.19965908	     45.00000000	    -33.61454623	   2068.94419995	   -831.91719927	    146.44384896	   -128.38865462	   1100.32001047	     98.05759996	     13.49223284	      1.11297987	      8.39636734	    -45.00000000	    -36.32153929	     45.00000000	    -45.00000000	  -2060.37292248	    268.02109298	    138.91036407	    149.71200528	   2530.90635022	     10.42658153	      4.19695532	    -19.71094992
     11.58000000	     39.47251151	     10.67359034	     13.44111854	   -228.10949674	    843.78891271	      7.39553819	     12.34556849	     39.04019606	     38.27103156	     45.00000000	    -33.30193614	   2068.94611221	   -831.99986606	    146.41193488	   -128.58414760	   1100.26970191	     97.76130965	     13.61548496	      1.07256473	      8.48672523	    -45.00000000	    -36.33245517	     45.00000000	    -45.00000000	  -2060.54221499	    268.01582816	    138.80573312	    150.15049736	   2530.84382909	      9.45875374	      4.42753366	    -19.72394908
     11.59000000	     39.47882092	     10.77314919	     13.53154507	   -226.33092145	    843.12199083	      7.36332183	     12.32326943	     39.07378351	     38.30374575	     45.00000000	    -33.04690912	   2068.97650381	   -832.03859090	    146.39142736	   -128.86982481	   1100.22934927	     97.40700350	     13.73988936	      1.03210052	      8.50014822	    -45.00000000	    -36.35580940	     45.00000000	    -45.00000000	  -2060.70067863	    268.00159246	    138.67211302	    150.48512774	   2530.79006909	      8.48841729	      4.67778171	    -19.73201853
     11.60000000	     39.50989890	     10.80743261	     13.59110250	   -224.46179523	    842.38637856	      7.33531410	     12.45332430	     39.19682115	     38.43517314	     45.00000000	    -32.81697740	   2068.97477003	   -832.07911510	    146.36249081	   -129.01060317	   1100.20541012	     96.91322825	     13.91125457	      0.97660570	      8.37164581	    -45.00000000	    -36.39555200	     45.00000000	    -45.00000000	  -2060.93596852	    267.97918327	    138.62977982	    150.91494072	   2530.80902603	      7.40817465	      4.94962053	    -19.74313277
     11.61000000	     39.52870988	     10.90851852	     13.69108014	   -222.49884502	    841.57587129	      7.31201734	     12.45691357	     39.27136824	     38.55321764	     45.00000000	    -32.51603596	   2068.94324611	   -832.14752773	    146.38144054	   -129.25785183	   1100.14113564	     96.30936237	     14.09531250	      0.94347095	      8.37567096	    -45.00000000	    -36.40252187	     45.00000000	    -45.00000000	  -2061.14893525	    267.97586062	    138.50254530	    151.29377333	   2530.74921377	      6.31142337	      5.22989680	    -19.72480066
     11.62000000	     39.52512613	     10.96333815	     13.79685744	   -220.44000753	    840.68394810	      7.29356856	     12.43699683	     39.33382119	     38.60337908	     45.00000000	    -32.18500973	   2068.99366486	   -832.23552405	    146.35720538	   -129.49345679	   1100.04897181	     95.57871208	     14.30060722	      0.92660910	      8.38707334	    -45.00000000	    -36.44236333	     45.00000000	    -45.00000000	  -2061.36563670	    267.91967559	    138.40624336	    151.65033323	   2530.65957173	      5.22967480	      5.53920207	    -19.68684443
     11.63000000	     39.38090945	     11.26592630	     14.06053225	   -218.28365728	    839.70417713	      7.28015361	     11.71809908	     39.05388981	     38.33768270	     45.00000000	    -31.57836478	   2069.59901260	   -832.06829896	    147.01732086	   -130.02408227	   1100.21160365	     94.89449329	     14.40245073	      0.87396169	      8.75485946	    -45.00000000	    -36.83279881	     45.00000000	    -44.50133569	  -2061.30326930	    267.70741979	    138.33606707	    151.84506181	   2530.55148930	      4.40166786	      5.92681977	    -19.62612682
     11.64000000	     39.54356072	     11.10907354	     13.97564916	   -216.03150961	    838.62946732	      7.27156042	     12.75363640	     39.60301669	     38.93464870	     45.00000000	    -31.59170440	   2068.91428124	   -832.47779139	    146.40259012	   -129.89927173	   1099.96343680	     93.63809225	     14.79232583	      0.87203517	      8.07640105	    -45.00000000	    -36.52274093	     45.00000000	    -44.63867541	  -2061.91680582	    267.76785287	    138.42931613	    152.35580495	   2530.67199033	      3.10000361	      6.18230666	    -19.61016209
     11.65000000	     39.53671822	     11.11164680	     14.04728739	   -213.68359770	    837.45450795	      7.26726796	     12.72493209	     39.70269609	     39.00426550	     45.00000000	    -31.23767545	   2069.02036134	   -832.59202800	    146.34326099	   -130.21463335	   1099.74385707	     92.21779815	     15.11418643	      0.91038161	      8.09033945	    -45.00000000	    -36.57311465	     45.00000000	    -44.29793285	  -2062.13067230	    267.64640106	    138.38626392	    152.53240511	   2530.53684915	      1.95771715	      6.53781364	    -19.51872070
     11.66000000	     39.50975501	     11.21377256	     14.13311782	   -211.24591213	    836.17657894	      7.26643325	     12.60569656	     39.68942643	     39.02044251	     45.00000000	    -31.00001624	   2069.08633078	   -832.67136968	    146.28655008	   -130.63481242	   1099.59084403	     90.64915630	     15.43687047	      0.95884593	      8.19462811	    -45.00000000	    -36.67755269	     45.00000000	    -43.97391715	  -2062.30916262	    267.52924089	    138.30271726	    152.61797123	   2530.50487758	      0.92326860	      6.85423802	    -19.43331742
     11.67000000	     39.49279517	     11.31033348	     14.25419077	   -208.71900153	    834.79259350	      7.26843730	     12.48293934	     39.68062001	     39.03389768	     45.00000000	    -30.68781299	   2069.24740671	   -832.71883717	    146.27869125	   -131.01130845	   1099.37724920	     88.90159662	     15.77677601	      1.04126131	      8.25211238	    -45.00000000	    -36.78192618	     45.00000000	    -43.72490773	  -2062.50932207	    267.38874432	    138.23557322	    152.78879426	   2530.41996796	     -0.03536073	      7.18892430	    -19.32243914
     11.68000000	     39.47722677	     11.32981523	     14.40640099	   -206.10579971	    833.30197493	      7.27278279	     13.02131745	     40.02407296	     39.36224424	     45.00000000	    -30.37465856	   2069.14403772	   -832.99958306	    146.34541924	   -131.23062209	   1099.18964435	     86.36822017	     16.21597926	      1.12215068	      7.77999857	    -45.00000000	    -36.68755912	     45.00000000	    -43.42126459	  -2062.92214379	    267.25981526	    138.41038252	    153.09599229	   2530.38990687	     -1.14976286	      7.56539681	    -19.20961714
